<svg width="20" height="20" viewBox="0 0 20 20" fill="none" xmlns="http://www.w3.org/2000/svg">
<path d="M9.27437 3.54219L1.36187 17.2484C1.04312 17.8047 1.44312 18.5047 2.08687 18.5047H17.9119C18.5556 18.5047 18.9556 17.8109 18.6369 17.2484L10.7244 3.54219C10.3994 2.98594 9.59937 2.98594 9.27437 3.54219Z" fill="#FFB02E"/>
<path d="M9.12415 13.4363C9.12497 13.6684 9.21796 13.8906 9.38264 14.0541C9.46418 14.1351 9.56087 14.1992 9.66718 14.2428C9.7735 14.2864 9.88736 14.3086 10.0023 14.3082C10.1172 14.3078 10.2309 14.2848 10.3369 14.2404C10.4429 14.196 10.5391 14.1313 10.6201 14.0497C10.701 13.9682 10.7651 13.8715 10.8087 13.7652C10.8523 13.6588 10.8746 13.545 10.8741 13.4301V7.70508C10.8741 7.22383 10.4866 6.83008 9.99915 6.83008C9.5179 6.83008 9.12415 7.21758 9.12415 7.70508V13.4363ZM10.8741 15.9238C10.8741 16.1559 10.782 16.3785 10.6179 16.5425C10.4538 16.7066 10.2312 16.7988 9.99915 16.7988C9.76708 16.7988 9.54452 16.7066 9.38043 16.5425C9.21633 16.3785 9.12415 16.1559 9.12415 15.9238C9.12415 15.6918 9.21633 15.4692 9.38043 15.3051C9.54452 15.141 9.76708 15.0488 9.99915 15.0488C10.2312 15.0488 10.4538 15.141 10.6179 15.3051C10.782 15.4692 10.8741 15.6918 10.8741 15.9238Z" fill="black"/>
</svg>
