<svg width="16" height="16" viewBox="0 0 16 16" fill="none" xmlns="http://www.w3.org/2000/svg">
<path d="M7.52144 2.30302C7.6751 1.99173 7.75193 1.83609 7.85623 1.78636C7.94697 1.74309 8.0524 1.74309 8.14314 1.78636C8.24744 1.83609 8.32427 1.99173 8.47793 2.30302L9.93571 5.25634C9.98108 5.34824 10.0038 5.39419 10.0369 5.42986C10.0663 5.46145 10.1015 5.48705 10.1406 5.50523C10.1847 5.52576 10.2354 5.53317 10.3368 5.548L13.5977 6.02462C13.9411 6.07481 14.1127 6.0999 14.1922 6.18377C14.2613 6.25674 14.2938 6.35701 14.2807 6.45666C14.2656 6.5712 14.1413 6.69227 13.8927 6.9344L11.534 9.23176C11.4604 9.30338 11.4237 9.33918 11.4 9.38179C11.379 9.41951 11.3655 9.46096 11.3603 9.50382C11.3544 9.55223 11.3631 9.60281 11.3804 9.70397L11.937 12.9489C11.9957 13.2911 12.025 13.4623 11.9699 13.5638C11.9219 13.6522 11.8366 13.7141 11.7377 13.7325C11.6241 13.7535 11.4704 13.6727 11.1631 13.5111L8.24793 11.978C8.1571 11.9303 8.11168 11.9064 8.06384 11.897C8.02147 11.8887 7.9779 11.8887 7.93554 11.897C7.88769 11.9064 7.84227 11.9303 7.75145 11.978L4.83629 13.5111C4.52895 13.6727 4.37528 13.7535 4.26166 13.7325C4.1628 13.7141 4.07749 13.6522 4.0295 13.5638C3.97434 13.4623 4.00369 13.2911 4.06239 12.9489L4.61893 9.70397C4.63628 9.60281 4.64496 9.55223 4.63909 9.50382C4.63389 9.46096 4.62042 9.41951 4.59941 9.38179C4.57569 9.33918 4.53893 9.30337 4.4654 9.23176L2.10671 6.9344C1.85812 6.69227 1.73382 6.5712 1.71869 6.45666C1.70553 6.35701 1.73804 6.25674 1.80717 6.18377C1.88663 6.0999 2.05832 6.07481 2.4017 6.02462L5.66255 5.548C5.76396 5.53317 5.81466 5.52576 5.85882 5.50523C5.89792 5.48705 5.93312 5.46145 5.96246 5.42986C5.99561 5.39419 6.01829 5.34824 6.06366 5.25634L7.52144 2.30302Z" stroke="#FACC14" stroke-linecap="round" stroke-linejoin="round"/>
</svg>
